<svg width="518" height="250" viewBox="0 0 518 250" fill="none" xmlns="http://www.w3.org/2000/svg">
<path d="M518 230H0C5.67612 210.852 16.1556 194.609 30.934 189.789C52.5489 182.75 75.4236 202.108 96.9911 194.829C109.244 190.699 118.89 178.66 129.027 168.665C167.268 130.947 219.672 119.8 264.923 139.763C288.576 150.194 310.129 168.434 334.359 176.187C365.69 186.218 398.456 177.9 430.677 176.529C462.057 175.195 507.019 192.109 518 230Z" fill="#F3F5FD"/>
<path d="M255.026 70.625C255.026 70.625 247.293 66.525 249.02 45.469L233.043 42.506C233.043 42.506 234.843 61.385 226.756 67.378L255.026 70.625Z" fill="#E98862"/>
<g opacity="0.15">
<path d="M230.03 63.436L243.3 53.282L232.876 53.174C232.574 56.742 231.609 60.2223 230.03 63.436Z" fill="black"/>
</g>
<path d="M258.085 37.308C256.979 43.696 253.492 49.746 247.857 51.808C241.715 54.2465 235.069 55.145 228.5 54.425C211.01 52.991 214.47 13.225 222.773 5.498C231.076 -2.229 255.446 2.66499 258.41 15.585C259.944 22.267 259.137 31.225 258.085 37.308Z" fill="#E98862"/>
<path d="M217 6.871C217.522 6.04266 218.253 5.36686 219.12 4.912C226.887 0.688002 241.28 -0.773002 248.193 1.295C256.213 3.695 266.27 10.418 263.693 26.72C263.584 27.407 263.467 28.068 263.346 28.72C265.879 28.2871 268.482 28.5596 270.87 29.5078C273.259 30.456 275.34 32.0431 276.886 34.0955C278.432 36.1478 279.384 38.5862 279.637 41.1433C279.889 43.7005 279.433 46.2779 278.319 48.5932C277.204 50.9084 275.473 52.8722 273.317 54.2695C271.16 55.6667 268.661 56.4434 266.092 56.5145C263.523 56.5857 260.985 55.9485 258.754 54.6727C256.524 53.397 254.687 51.532 253.446 49.282C252.256 50.3097 250.971 51.2215 249.608 52.005C248.651 52.573 248.419 52.105 248.087 51.048C246.927 47.337 245.787 32.66 246.697 22.003L227.851 21.351L224.567 12.009L221.876 21.351H215.458C214.6 16.287 213.713 10.548 217 6.871Z" fill="#0F1011"/>
<path d="M233.066 32.387C233.866 32.387 234.515 31.7383 234.515 30.938C234.515 30.1377 233.866 29.489 233.066 29.489C232.266 29.489 231.617 30.1377 231.617 30.938C231.617 31.7383 232.266 32.387 233.066 32.387Z" fill="#0F1011"/>
<path d="M221.635 31.449C222.435 31.449 223.084 30.8003 223.084 30C223.084 29.1997 222.435 28.551 221.635 28.551C220.835 28.551 220.186 29.1997 220.186 30C220.186 30.8003 220.835 31.449 221.635 31.449Z" fill="#0F1011"/>
<path d="M219.124 26.913C218.943 26.9142 218.77 26.8436 218.641 26.7167C218.513 26.5899 218.44 26.4171 218.438 26.2365C218.437 26.0559 218.508 25.8822 218.635 25.7536C218.762 25.6251 218.934 25.5522 219.115 25.551L222.954 25.503C223.133 25.5056 223.304 25.5767 223.432 25.7014C223.56 25.8262 223.636 25.9953 223.643 26.174C223.644 26.2634 223.628 26.3522 223.595 26.4353C223.561 26.5184 223.512 26.5941 223.45 26.6582C223.388 26.7223 223.313 26.7734 223.231 26.8087C223.149 26.844 223.06 26.8628 222.971 26.864L219.133 26.913H219.124Z" fill="#0F1011"/>
<path d="M236.193 28.312C236.14 28.3119 236.086 28.3058 236.034 28.294L232.249 27.382C232.161 27.362 232.078 27.3247 232.005 27.2724C231.931 27.22 231.869 27.1536 231.821 27.077C231.774 27.0004 231.742 26.9151 231.728 26.8261C231.713 26.7371 231.717 26.6461 231.738 26.5584C231.759 26.4708 231.797 26.3882 231.851 26.3154C231.904 26.2427 231.971 26.1813 232.048 26.1347C232.126 26.0882 232.211 26.0574 232.301 26.0442C232.39 26.0311 232.481 26.0357 232.568 26.058L236.352 26.969C236.514 27.0081 236.656 27.1052 236.751 27.2419C236.846 27.3787 236.888 27.5456 236.869 27.7111C236.849 27.8765 236.769 28.0291 236.645 28.1398C236.52 28.2506 236.36 28.3118 236.193 28.312Z" fill="#0F1011"/>
<path d="M240.6 34.483C240.491 36.0935 241.021 37.682 242.074 38.9051C243.128 40.1282 244.62 40.8875 246.229 41.0189C247.838 41.1503 249.434 40.6432 250.671 39.6073C251.909 38.5713 252.69 37.0898 252.844 35.483C252.924 34.6764 252.841 33.862 252.599 33.0882C252.358 32.3144 251.963 31.5971 251.439 30.9791C250.914 30.361 250.271 29.8548 249.547 29.4905C248.823 29.1263 248.033 28.9115 247.224 28.859C242.85 28.725 240.881 31.102 240.6 34.483Z" fill="#E98862"/>
<g opacity="0.15">
<path d="M226.634 38.974C226.584 38.974 226.534 38.9666 226.487 38.952L223 37.88C222.932 37.8591 222.87 37.8242 222.817 37.7774C222.764 37.7306 222.721 37.673 222.692 37.6086C222.663 37.5441 222.647 37.4742 222.647 37.4034C222.647 37.3326 222.662 37.2626 222.691 37.198L224.984 32.091C225.038 31.9701 225.139 31.8757 225.263 31.8288C225.387 31.7818 225.524 31.786 225.645 31.8405C225.766 31.895 225.861 31.9953 225.908 32.1194C225.955 32.2434 225.95 32.3811 225.896 32.502L223.835 37.091L226.782 37.997C226.896 38.0327 226.993 38.1079 227.056 38.2091C227.119 38.3102 227.144 38.4305 227.126 38.5484C227.109 38.6663 227.049 38.774 226.959 38.852C226.869 38.93 226.754 38.9733 226.635 38.974H226.634Z" fill="black"/>
</g>
<path d="M232.4 42.349C232.4 42.349 227.051 42.913 223.3 41.603C223.3 41.603 223.33 45.126 227.562 45.473C231.794 45.82 232.4 42.349 232.4 42.349Z" fill="white"/>
<path d="M193.466 225.253C191.566 224.935 170.128 221.274 170.128 221.274L173.664 200.574C173.664 200.574 195.037 204.225 196.932 204.542L193.466 225.253Z" fill="#E98862"/>
<path d="M157.9 245.109C157.809 245.666 157.835 246.237 157.974 246.784C158.114 247.331 158.364 247.844 158.711 248.29C159.058 248.736 159.492 249.105 159.988 249.376C160.484 249.646 161.03 249.811 161.593 249.861C162.373 249.93 163.156 249.774 163.85 249.413C164.545 249.052 165.122 248.5 165.513 247.822L177.625 225.067C177.858 224.626 177.993 224.14 178.02 223.642C178.047 223.144 177.967 222.646 177.784 222.182C176.039 218.483 175.527 214.321 176.324 210.309C177.074 207.206 178.68 204.376 180.959 202.142C181.18 201.949 181.341 201.697 181.424 201.416C181.507 201.135 181.509 200.835 181.428 200.553C181.348 200.271 181.189 200.018 180.97 199.823C180.751 199.628 180.481 199.499 180.192 199.451L168.4 197.477C168.052 197.419 167.696 197.43 167.353 197.509C167.009 197.589 166.685 197.736 166.398 197.941C166.111 198.146 165.868 198.406 165.682 198.706C165.496 199.006 165.371 199.339 165.314 199.687L157.9 245.109Z" fill="#C1D8ED"/>
<path d="M259.82 169.265C268.715 169.636 277.774 169.896 286.835 170.12L300.45 170.42L314.05 170.665L315.405 170.689C321.022 170.795 326.39 173.026 330.427 176.934C334.464 180.841 336.869 186.134 337.158 191.744C337.446 197.355 335.597 202.866 331.983 207.167C328.368 211.469 323.258 214.239 317.681 214.921L183.281 231.241L177.809 191.525L311.609 170.87L315.241 215.126L301.432 216.019L287.632 216.853C278.417 217.386 269.199 217.884 259.816 218.269L259.82 169.265Z" fill="#262626"/>
<path d="M293.723 216.555C275.167 213.855 273.317 213.355 272.708 213.195L278.168 192.918C278.107 192.901 278.027 192.879 277.929 192.858C279.45 193.19 288.88 194.63 296.744 195.774L293.723 216.555Z" fill="#E98862"/>
<path d="M316.9 234.606C317.095 235.136 317.178 235.701 317.145 236.264C317.111 236.828 316.962 237.379 316.707 237.882C316.451 238.386 316.094 238.831 315.659 239.191C315.224 239.55 314.719 239.816 314.176 239.972C313.423 240.187 312.625 240.184 311.874 239.961C311.124 239.738 310.453 239.305 309.94 238.714L293.73 218.672C293.419 218.283 293.195 217.831 293.075 217.348C292.954 216.865 292.939 216.362 293.03 215.872C294.041 211.909 293.754 207.726 292.21 203.938C290.886 201.034 288.772 198.561 286.11 196.8C285.856 196.653 285.649 196.436 285.514 196.176C285.379 195.915 285.32 195.622 285.346 195.329C285.371 195.037 285.479 194.758 285.657 194.524C285.835 194.291 286.076 194.113 286.352 194.012L297.552 189.836C297.882 189.713 298.233 189.656 298.585 189.669C298.937 189.682 299.284 189.764 299.604 189.911C299.924 190.058 300.212 190.267 300.452 190.525C300.691 190.783 300.878 191.087 301 191.417L316.9 234.606Z" fill="#C1D8ED"/>
<path d="M229.977 214.665C224.346 214.186 218.716 213.84 213.087 213.515C207.459 213.215 201.83 212.915 196.204 212.715L187.764 212.39L179.325 212.147C173.699 211.959 168.075 211.882 162.451 211.775L164.4 171.365C174.929 172.837 185.472 174.19 196.012 175.576C206.552 176.962 217.103 178.239 227.653 179.536L243.486 181.402L259.331 183.178C269.899 184.314 280.469 185.442 291.061 186.372L286.413 226.202C275.891 224.668 265.346 223.332 254.8 222.002L238.972 220.082L223.134 218.252C212.569 217.085 202.007 215.901 191.434 214.82C180.861 213.739 170.287 212.631 159.702 211.639C154.626 211.162 149.917 208.786 146.518 204.986C143.118 201.186 141.279 196.243 141.367 191.146C141.456 186.048 143.466 181.172 146.995 177.492C150.524 173.813 155.312 171.602 160.402 171.301L161.654 171.23C167.27 170.9 172.887 170.601 178.501 170.191L186.924 169.615L195.344 168.957C200.958 168.534 206.57 168.009 212.183 167.489C217.794 166.942 223.405 166.374 229.014 165.673L229.977 214.665Z" fill="#262626"/>
<path d="M280.254 163.131L283.214 212.836L197.724 211.832L204.177 167.826L280.254 163.131Z" fill="#262626"/>
<path d="M198.109 171.174C202.298 180.804 284.628 184.804 285.728 167.864C286.428 157.084 276.928 147.674 276.928 126.664C276.928 105.654 296.259 87.824 280.509 72.074C275.938 67.504 268.048 64.554 258.428 64.544C257.708 70.154 223.648 70.174 223.388 64.674C222.088 64.694 221.078 64.714 220.448 64.744C187.268 66.174 201.848 94.934 202.168 122.674C202.558 155.134 193.788 161.254 198.109 171.174Z" fill="#367CFF"/>
<path d="M223.388 64.674C223.648 70.174 226.638 78.264 235.868 78.874C248.168 79.684 257.708 70.154 258.428 64.544H258.398C246.288 64.544 230.448 64.564 223.388 64.674Z" fill="#E98862"/>
<path d="M306.982 160.119C304.406 160.12 301.912 159.208 299.945 157.545L264.989 128.014L277.556 113.138L265.175 87.363L284.829 77.921L316.808 144.496C317.607 146.158 317.971 147.995 317.867 149.836C317.763 151.677 317.193 153.461 316.211 155.022C315.23 156.583 313.868 157.869 312.254 158.761C310.64 159.652 308.826 160.119 306.982 160.119Z" fill="#367CFF"/>
<path d="M165.059 166.969C163.213 166.967 161.4 166.478 159.803 165.552C158.207 164.626 156.882 163.296 155.963 161.694C155.045 160.093 154.564 158.278 154.571 156.432C154.577 154.586 155.07 152.775 156 151.18L202.412 71.555L220.555 82.131L197.5 121.673L199.429 122.929L173.864 162.197C172.911 163.663 171.606 164.868 170.068 165.701C168.53 166.535 166.808 166.971 165.059 166.969Z" fill="#367CFF"/>
<path d="M231.3 139.971C248.17 123.102 267.026 133.902 267.026 133.902V82.315C242.936 76.246 231.3 88.889 231.3 88.889C231.3 88.889 217.288 75.908 194.865 85.349V137.386C194.865 137.386 205.245 131.092 215.601 133.786C225.957 136.48 231.3 139.971 231.3 139.971Z" fill="#9EBCEA"/>
<path d="M276.846 115.608L269.697 125.308C269.697 125.308 252.566 123.178 250.763 108.374C250.556 106.674 251.287 101.128 254.935 102.587C260.126 104.664 263.596 107.766 267.905 112.076C266.811 110.114 265.474 107.345 266.336 106.839C268.6 105.507 274.7 113.544 276.846 115.608Z" fill="#E98862"/>
<path d="M200.206 123.232L188.746 114.092C190.815 110.582 193.686 105.892 195.506 106.532C196.446 106.872 195.666 109.842 194.966 111.982C198.366 106.922 201.436 102.412 206.236 100.052C209.756 98.312 211.306 103.222 211.436 104.932C212.136 114.732 205.085 120.472 200.206 123.232Z" fill="#E98862"/>
<path d="M203.146 125.582L173.275 163.022L156.856 149.922L186.726 112.482L188.746 114.092L200.206 123.232L203.146 125.582Z" fill="#367CFF"/>
<path d="M279.059 111.356L264.989 128.013L299.945 157.543L314.016 140.886L279.059 111.356Z" fill="#367CFF"/>
<path d="M121.5 203.925V199.612H97.4639V230.333H121.5V225.126C124.311 225.126 127.007 224.009 128.995 222.021C130.983 220.033 132.1 217.337 132.1 214.526C132.1 211.715 130.983 209.019 128.995 207.031C127.007 205.043 124.311 203.926 121.5 203.926V203.925ZM121.5 220.748V208.307C122.324 208.297 123.141 208.45 123.905 208.758C124.67 209.066 125.365 209.523 125.951 210.101C126.537 210.68 127.003 211.37 127.32 212.13C127.638 212.89 127.802 213.706 127.802 214.529C127.802 215.353 127.638 216.169 127.32 216.929C127.003 217.689 126.537 218.379 125.951 218.958C125.365 219.536 124.67 219.993 123.905 220.301C123.141 220.609 122.324 220.762 121.5 220.752V220.748Z" fill="#0CBC8B"/>
</svg>
